<?xml version="1.0"?>
<svg xmlns="http://www.w3.org/2000/svg" viewBox="0 0 24 24">
    <path style="line-height:normal;text-indent:0;text-align:start;text-decoration-line:none;text-decoration-style:solid;text-decoration-color:#000;text-transform:none;block-progression:tb;isolation:auto;mix-blend-mode:normal" d="M 7 3 C 3.6983746 3 1 5.6983746 1 9 C 1 9.444665 1.1051217 9.8277409 1.1953125 10.216797 C 0.48984662 11.13784 0 12.247611 0 13.5 C 0 16.49169 2.4250525 18.925901 5.4042969 18.980469 C 6.4131485 20.162211 7.8295339 21 9.5 21 C 11.174975 21 12.59657 20.159909 13.605469 18.972656 C 15.236371 18.938916 16.613086 18.122499 17.597656 16.960938 C 17.733807 16.975897 17.837448 17 18 17 C 21.301625 17 24 14.301625 24 11 C 24 7.6983746 21.301625 5 18 5 C 17.382982 5 16.823321 5.18566 16.263672 5.359375 C 15.38494 4.5673211 14.28163 4 13 4 C 12.23808 4 11.591849 4.3327315 10.945312 4.6386719 C 9.8876285 3.677608 8.5476676 3 7 3 z M 7 5 C 8.1959188 5 9.2440979 5.5283146 9.984375 6.3671875 L 10.570312 7.03125 L 11.300781 6.53125 C 11.788696 6.1961394 12.366234 6 13 6 C 13.911022 6 14.708437 6.4106213 15.265625 7.0605469 L 15.744141 7.6171875 L 16.419922 7.328125 C 16.908729 7.117946 17.438551 7 18 7 C 20.220375 7 22 8.7796254 22 11 C 22 13.220375 20.220375 15 18 15 C 17.855564 15 17.671354 14.97377 17.425781 14.9375 L 16.789062 14.84375 L 16.439453 15.384766 C 15.814057 16.356042 14.741192 17 13.5 17 C 13.57473 17 13.51921 16.988903 13.314453 16.976562 L 12.738281 16.941406 L 12.419922 17.423828 C 11.791285 18.374589 10.727749 19 9.5 19 C 8.2722505 19 7.2087149 18.374583 6.5800781 17.423828 L 6.2617188 16.941406 L 5.6855469 16.976562 C 5.4807929 16.988898 5.4252698 17 5.5 17 C 3.5555768 17 2 15.444423 2 13.5 C 2 12.57132 2.3641021 11.741143 2.9589844 11.109375 L 3.3535156 10.689453 L 3.1894531 10.136719 C 3.0713921 9.7426031 3 9.3708246 3 9 C 3 6.7796254 4.7796254 5 7 5 z M 8.2675781 9 C 8.2465781 9 8.2314687 9.0180625 8.2304688 9.0390625 L 8.2304688 11.957031 C 8.2304688 11.979031 8.2465781 11.998047 8.2675781 11.998047 L 8.6054688 11.998047 C 8.6274687 11.998047 8.6425781 11.979031 8.6425781 11.957031 L 8.6425781 9.0390625 C 8.6425781 9.0180625 8.6264688 9 8.6054688 9 L 8.2675781 9 z M 14.197266 9 C 13.957266 9 13.769719 9.0671719 13.636719 9.2011719 C 13.504719 9.3341719 13.410234 9.562125 13.365234 9.828125 L 13.339844 10 L 13.039062 10 C 13.039062 10 13.001141 10.010781 12.994141 10.050781 L 12.945312 10.326172 C 12.941313 10.352172 12.953281 10.369141 12.988281 10.369141 L 13.28125 10.369141 L 12.988281 12.005859 C 12.965281 12.139859 12.937203 12.249031 12.908203 12.332031 C 12.879203 12.414031 12.851406 12.476484 12.816406 12.521484 C 12.782406 12.564484 12.750313 12.596234 12.695312 12.615234 C 12.649313 12.630234 12.596063 12.636719 12.539062 12.636719 C 12.507062 12.636719 12.464594 12.632 12.433594 12.625 C 12.401594 12.619 12.385328 12.611562 12.361328 12.601562 C 12.361328 12.601562 12.3265 12.589047 12.3125 12.623047 C 12.3015 12.651047 12.223844 12.865578 12.214844 12.892578 C 12.205844 12.918578 12.219328 12.939312 12.236328 12.945312 C 12.275328 12.959312 12.304422 12.968469 12.357422 12.980469 C 12.429422 12.998469 12.490828 13 12.548828 13 C 12.670828 13 12.783 12.982219 12.875 12.949219 C 12.968 12.915219 13.048141 12.858297 13.119141 12.779297 C 13.196141 12.694297 13.246969 12.604422 13.292969 12.482422 C 13.338969 12.361422 13.376203 12.210156 13.408203 12.035156 L 13.703125 10.369141 L 14.140625 10.369141 C 14.140625 10.369141 14.178547 10.370078 14.185547 10.330078 L 14.234375 10.054688 C 14.239375 10.027688 14.228359 10 14.193359 10 L 13.769531 10 C 13.771531 9.991 13.802563 9.73475 13.851562 9.59375 C 13.872563 9.53375 13.910359 9.4851719 13.943359 9.4511719 C 13.975359 9.4181719 14.013687 9.3958125 14.054688 9.3828125 C 14.096687 9.3698125 14.145266 9.3632812 14.197266 9.3632812 C 14.237266 9.3632812 14.276641 9.3670469 14.306641 9.3730469 C 14.347641 9.3820469 14.362047 9.387625 14.373047 9.390625 C 14.416047 9.403625 14.422641 9.3901406 14.431641 9.3691406 L 14.533203 9.0917969 C 14.544203 9.0627969 14.519766 9.0489219 14.509766 9.0449219 C 14.467766 9.0319219 14.428906 9.0226719 14.378906 9.0136719 C 14.327906 9.0046719 14.265266 9 14.197266 9 z M 5.0234375 10 C 4.5914375 10 4.2890625 10.241937 4.2890625 10.585938 L 4.2890625 10.591797 C 4.2890625 10.954797 4.6225938 11.072297 4.9335938 11.154297 L 4.984375 11.169922 C 5.211375 11.233922 5.40625 11.288547 5.40625 11.435547 L 5.40625 11.443359 C 5.40625 11.578359 5.2792187 11.677734 5.0742188 11.677734 C 4.9942187 11.677734 4.7407969 11.677578 4.4667969 11.517578 C 4.4337969 11.500578 4.415625 11.486656 4.390625 11.472656 C 4.376625 11.464656 4.343125 11.451188 4.328125 11.492188 L 4.234375 11.730469 C 4.219375 11.765469 4.2391406 11.773297 4.2441406 11.779297 C 4.2871406 11.808297 4.3329531 11.828563 4.3769531 11.851562 C 4.6109531 11.966563 4.8315 12 5.0625 12 C 5.5345 12 5.828125 11.769484 5.828125 11.396484 L 5.828125 11.388672 C 5.828125 11.044672 5.4975 10.918125 5.1875 10.828125 L 5.1464844 10.816406 C 4.9124844 10.746406 4.7109375 10.686922 4.7109375 10.544922 L 4.7109375 10.537109 C 4.7109375 10.415109 4.8287188 10.326172 5.0117188 10.326172 C 5.2147188 10.326172 5.454375 10.387797 5.609375 10.466797 C 5.609375 10.466797 5.6568281 10.494125 5.6738281 10.453125 C 5.6828281 10.431125 5.7615313 10.235844 5.7695312 10.214844 C 5.7785313 10.191844 5.7620937 10.175016 5.7460938 10.166016 C 5.5700938 10.068016 5.3233125 10 5.0703125 10 L 5.0234375 10 z M 6.9882812 10 C 6.8882813 10 6.7288125 10.012297 6.6328125 10.029297 C 6.6328125 10.029297 6.3407031 10.082922 6.2207031 10.169922 C 6.2207031 10.169922 6.1949844 10.18475 6.2089844 10.21875 L 6.3027344 10.453125 C 6.3147344 10.483125 6.3476563 10.472656 6.3476562 10.472656 C 6.3476562 10.472656 6.3571406 10.468891 6.3691406 10.462891 C 6.6251406 10.333891 6.9492188 10.337891 6.9492188 10.337891 C 7.0932188 10.337891 7.2042969 10.364969 7.2792969 10.417969 C 7.3522969 10.469969 7.390625 10.548891 7.390625 10.712891 L 7.390625 10.763672 C 7.275625 10.749672 7.1699219 10.740234 7.1699219 10.740234 C 7.1159219 10.736234 7.0468906 10.734375 6.9628906 10.734375 C 6.8488906 10.734375 6.7368125 10.747437 6.6328125 10.773438 C 6.5288125 10.799438 6.4354687 10.840531 6.3554688 10.894531 C 6.2744687 10.948531 6.2091094 11.015656 6.1621094 11.097656 C 6.1151094 11.179656 6.0898438 11.275813 6.0898438 11.382812 C 6.0898438 11.492812 6.1093906 11.587063 6.1503906 11.664062 C 6.1913906 11.742062 6.2492188 11.807422 6.3242188 11.857422 C 6.3982187 11.907422 6.4907031 11.944797 6.5957031 11.966797 C 6.7007031 11.989797 6.8192188 12 6.9492188 12 C 7.0862187 12 7.2234688 11.98875 7.3554688 11.96875 C 7.4864688 11.94775 7.6464063 11.917203 7.6914062 11.908203 C 7.7354062 11.899203 7.7832031 11.886719 7.7832031 11.886719 C 7.8162031 11.878719 7.8144531 11.847656 7.8144531 11.847656 L 7.8125 10.716797 C 7.8125 10.468797 7.7425625 10.285875 7.6015625 10.171875 C 7.4625625 10.057875 7.2552813 10 6.9882812 10 z M 9.9902344 10 C 9.8232344 10 9.6727813 10.025125 9.5507812 10.078125 C 9.4277813 10.131125 9.3251406 10.205875 9.2441406 10.296875 C 9.1631406 10.387875 9.1015 10.494187 9.0625 10.617188 C 9.0235 10.739187 9.0058594 10.871719 9.0058594 11.011719 C 9.0058594 11.154719 9.0254062 11.28725 9.0664062 11.40625 C 9.1074063 11.52725 9.1717656 11.631703 9.2597656 11.720703 C 9.3477656 11.808703 9.45875 11.878734 9.59375 11.927734 C 9.72675 11.976734 9.8891719 12.001 10.076172 12 C 10.461172 11.999 10.665047 11.919953 10.748047 11.876953 C 10.763047 11.868953 10.777766 11.854406 10.759766 11.816406 L 10.671875 11.591797 C 10.658875 11.557797 10.621094 11.570312 10.621094 11.570312 C 10.525094 11.603312 10.390219 11.661156 10.074219 11.660156 C 9.8672187 11.660156 9.7131875 11.603625 9.6171875 11.515625 C 9.5191875 11.425625 9.4708906 11.293469 9.4628906 11.105469 L 10.796875 11.105469 C 10.796875 11.105469 10.831938 11.106219 10.835938 11.074219 C 10.837938 11.060219 10.881875 10.818063 10.796875 10.539062 C 10.763875 10.422062 10.680953 10.305953 10.626953 10.251953 C 10.540953 10.165953 10.456047 10.105266 10.373047 10.072266 C 10.264047 10.029266 10.132234 10 9.9902344 10 z M 11.892578 10 C 11.460578 10 11.158203 10.241937 11.158203 10.585938 L 11.158203 10.591797 C 11.158203 10.954797 11.491734 11.072297 11.802734 11.154297 L 11.853516 11.169922 C 12.080516 11.233922 12.275391 11.288547 12.275391 11.435547 L 12.275391 11.443359 C 12.275391 11.578359 12.149359 11.677734 11.943359 11.677734 C 11.863359 11.677734 11.610937 11.677578 11.335938 11.517578 C 11.302938 11.499578 11.282812 11.487656 11.257812 11.472656 C 11.249813 11.467656 11.209313 11.453187 11.195312 11.492188 L 11.103516 11.730469 C 11.088516 11.765469 11.108281 11.773297 11.113281 11.779297 C 11.156281 11.808297 11.200141 11.828563 11.244141 11.851562 C 11.479141 11.966563 11.700641 12 11.931641 12 C 12.403641 12 12.697266 11.769484 12.697266 11.396484 L 12.697266 11.388672 C 12.697266 11.044672 12.366641 10.918125 12.056641 10.828125 L 12.015625 10.816406 C 11.781625 10.746406 11.578125 10.686922 11.578125 10.544922 L 11.578125 10.537109 C 11.578125 10.415109 11.697859 10.326172 11.880859 10.326172 C 12.083859 10.326172 12.323516 10.387797 12.478516 10.466797 C 12.478516 10.466797 12.525969 10.494125 12.542969 10.453125 C 12.551969 10.431125 12.630672 10.235844 12.638672 10.214844 C 12.647672 10.191844 12.631234 10.175016 12.615234 10.166016 C 12.438234 10.068016 12.192453 10 11.939453 10 L 11.892578 10 z M 15.160156 10 C 15.000156 10 14.857328 10.026125 14.736328 10.078125 C 14.615328 10.130125 14.515547 10.202969 14.435547 10.292969 C 14.355547 10.381969 14.293859 10.488375 14.255859 10.609375 C 14.216859 10.730375 14.197266 10.863906 14.197266 11.003906 C 14.197266 11.143906 14.217859 11.275484 14.255859 11.396484 C 14.294859 11.517484 14.355547 11.623891 14.435547 11.712891 C 14.515547 11.801891 14.617281 11.874781 14.738281 11.925781 C 14.858281 11.974781 15.000156 12 15.160156 12 C 15.320156 12 15.461031 11.974828 15.582031 11.923828 C 15.702031 11.872828 15.803766 11.800937 15.884766 11.710938 C 15.964766 11.621937 16.026453 11.515531 16.064453 11.394531 C 16.103453 11.273531 16.121094 11.141953 16.121094 11.001953 C 16.121094 10.862953 16.102453 10.730375 16.064453 10.609375 C 16.025453 10.488375 15.964766 10.381969 15.884766 10.292969 C 15.804766 10.203969 15.703031 10.130125 15.582031 10.078125 C 15.462031 10.026125 15.320156 10 15.160156 10 z M 18.644531 10 C 18.479531 10 18.331078 10.026125 18.205078 10.078125 C 18.079078 10.130125 17.972672 10.202016 17.888672 10.291016 C 17.803672 10.380016 17.739266 10.486422 17.697266 10.607422 C 17.654266 10.728422 17.632812 10.861953 17.632812 11.001953 C 17.632812 11.304953 17.720531 11.549516 17.894531 11.728516 C 18.068531 11.909516 18.329875 12 18.671875 12 C 18.873875 12 19.081469 11.962203 19.230469 11.908203 C 19.230469 11.908203 19.258094 11.894281 19.246094 11.863281 L 19.148438 11.617188 C 19.135437 11.582187 19.099609 11.595703 19.099609 11.595703 C 19.042609 11.615703 18.981016 11.633578 18.916016 11.642578 C 18.850016 11.652578 18.777219 11.65625 18.699219 11.65625 C 18.509219 11.65625 18.357047 11.604953 18.248047 11.501953 C 18.139047 11.397953 18.079078 11.228953 18.080078 11.001953 C 18.081078 10.794953 18.133469 10.640484 18.230469 10.521484 C 18.326469 10.403484 18.472969 10.34375 18.667969 10.34375 C 18.829969 10.34375 18.953984 10.361438 19.083984 10.398438 C 19.083984 10.398438 19.115859 10.411047 19.130859 10.373047 C 19.165859 10.284047 19.189562 10.221047 19.226562 10.123047 C 19.236563 10.095047 19.211172 10.083078 19.201172 10.080078 C 19.150172 10.061078 19.031453 10.030578 18.939453 10.017578 C 18.855453 10.005578 18.755531 10 18.644531 10 z M 20.277344 10 C 20.111344 10 19.960891 10.025125 19.837891 10.078125 C 19.714891 10.131125 19.61225 10.205875 19.53125 10.296875 C 19.45025 10.387875 19.388609 10.494187 19.349609 10.617188 C 19.310609 10.739187 19.292969 10.871719 19.292969 11.011719 C 19.292969 11.154719 19.312516 11.28725 19.353516 11.40625 C 19.394516 11.52725 19.458875 11.631703 19.546875 11.720703 C 19.634875 11.808703 19.745859 11.878734 19.880859 11.927734 C 20.014859 11.975734 20.178234 11.999047 20.365234 11.998047 C 20.750234 11.997047 20.952156 11.918 21.035156 11.875 C 21.050156 11.867 21.064875 11.854406 21.046875 11.816406 L 20.958984 11.589844 C 20.945984 11.555844 20.908203 11.568359 20.908203 11.568359 C 20.812203 11.601359 20.677328 11.661156 20.361328 11.660156 C 20.154328 11.660156 20.00225 11.603625 19.90625 11.515625 C 19.80825 11.425625 19.759953 11.291516 19.751953 11.103516 L 21.083984 11.105469 C 21.083984 11.105469 21.119047 11.104266 21.123047 11.072266 C 21.124047 11.059266 21.168031 10.818063 21.082031 10.539062 C 21.049031 10.422062 20.966109 10.305953 20.912109 10.251953 C 20.826109 10.165953 20.743156 10.105266 20.660156 10.072266 C 20.551156 10.029266 20.420344 10 20.277344 10 z M 17.384766 10.001953 C 17.216766 9.9919531 17.122063 10.018688 17.039062 10.054688 C 16.956063 10.090687 16.865453 10.146891 16.814453 10.212891 L 16.814453 10.056641 C 16.814453 10.035641 16.799344 10.019531 16.777344 10.019531 L 16.435547 10.019531 C 16.413547 10.019531 16.396484 10.035641 16.396484 10.056641 L 16.396484 11.960938 C 16.396484 11.981938 16.4145 11.998047 16.4375 11.998047 L 16.787109 11.998047 C 16.809109 11.998047 16.828125 11.981937 16.828125 11.960938 L 16.828125 11.009766 C 16.828125 10.881766 16.842094 10.753828 16.871094 10.673828 C 16.900094 10.594828 16.939281 10.532328 16.988281 10.486328 C 17.037281 10.441328 17.093297 10.408625 17.154297 10.390625 C 17.216297 10.372625 17.284031 10.367187 17.332031 10.367188 C 17.402031 10.367188 17.478516 10.384766 17.478516 10.384766 C 17.504516 10.387766 17.518344 10.371609 17.527344 10.349609 C 17.550344 10.294609 17.614953 10.118984 17.626953 10.083984 C 17.636953 10.054984 17.616422 10.040109 17.607422 10.037109 C 17.584422 10.029109 17.471766 10.007953 17.384766 10.001953 z M 9.9570312 10.326172 C 10.132031 10.326172 10.249031 10.391813 10.332031 10.507812 C 10.387031 10.584812 10.410922 10.684828 10.419922 10.798828 L 9.4707031 10.798828 C 9.4897031 10.680828 9.5231719 10.584812 9.5761719 10.507812 C 9.6581719 10.391813 9.7820312 10.326172 9.9570312 10.326172 z M 20.246094 10.326172 C 20.421094 10.326172 20.535141 10.391813 20.619141 10.507812 C 20.674141 10.584812 20.698984 10.684828 20.708984 10.798828 L 19.757812 10.798828 C 19.776812 10.680828 19.811234 10.584812 19.865234 10.507812 C 19.946234 10.391813 20.071094 10.326172 20.246094 10.326172 z M 15.160156 10.335938 C 15.335156 10.335938 15.459969 10.391812 15.542969 10.507812 C 15.627969 10.624812 15.669922 10.790953 15.669922 11.001953 C 15.669922 11.213953 15.627922 11.380047 15.544922 11.498047 C 15.461922 11.615047 15.334156 11.673828 15.160156 11.673828 C 14.985156 11.673828 14.861297 11.615047 14.779297 11.498047 C 14.696297 11.380047 14.654297 11.213953 14.654297 11.001953 C 14.654297 10.790953 14.695344 10.624812 14.777344 10.507812 C 14.859344 10.392812 14.985156 10.335938 15.160156 10.335938 z M 7.0273438 11.046875 C 7.2183437 11.048875 7.390625 11.076172 7.390625 11.076172 L 7.390625 11.638672 C 7.390625 11.638672 7.2202969 11.671641 7.0292969 11.681641 C 6.7582969 11.695641 6.6376719 11.608375 6.6386719 11.609375 C 6.5866719 11.570375 6.5805 11.560156 6.5625 11.535156 C 6.5355 11.497156 6.5214844 11.444 6.5214844 11.375 C 6.5214844 11.267 6.560625 11.188719 6.640625 11.136719 C 6.639625 11.136719 6.7553438 11.042875 7.0273438 11.046875 z" font-weight="400" font-family="sans-serif" white-space="normal" overflow="visible"/>
</svg>
